<?xml version="1.0" standalone="no"?>
<!DOCTYPE svg PUBLIC "-//W3C//DTD SVG 20010904//EN"
 "http://www.w3.org/TR/2001/REC-SVG-20010904/DTD/svg10.dtd">
<svg version="1.0" xmlns="http://www.w3.org/2000/svg"
 width="400.000000pt" height="400.000000pt" viewBox="0 0 400.000000 400.000000"
 preserveAspectRatio="xMidYMid meet">

<g transform="translate(0.000000,400.000000) scale(0.100000,-0.100000)"
fill="#000000" stroke="none">
<path d="M1770 3749 c-521 -47 -1004 -341 -1207 -734 -99 -193 -136 -356 -137
-605 -1 -359 90 -619 294 -845 148 -164 384 -311 628 -390 89 -29 92 -31 92
-60 0 -16 3 -47 6 -68 l7 -37 -390 0 c-415 0 -484 6 -545 45 -39 26 -84 108
-108 197 -12 45 -15 48 -46 48 l-34 0 0 -380 0 -380 691 0 691 0 -6 53 c-5 44
-21 192 -62 594 l-7 63 -81 39 c-267 129 -405 287 -505 578 -54 159 -74 299
-74 538 -1 275 23 429 96 610 95 236 232 396 422 490 165 83 382 119 588 98
156 -16 255 -44 376 -105 264 -132 439 -409 497 -787 22 -144 22 -421 0 -565
-42 -272 -151 -529 -278 -658 -73 -74 -159 -134 -285 -196 l-81 -41 -6 -48
c-10 -70 -66 -625 -66 -645 0 -17 40 -18 690 -18 l690 0 0 381 0 380 -36 -3
c-35 -3 -37 -5 -55 -63 -45 -143 -97 -198 -204 -215 -33 -5 -232 -10 -442 -10
l-383 0 0 58 c0 31 4 62 8 68 4 6 50 25 102 43 377 130 651 353 791 646 83
174 119 349 119 584 0 355 -99 628 -313 859 -334 362 -851 535 -1437 481z"/>
<path d="M2350 3084 c-97 -11 -203 -54 -277 -112 -39 -30 -73 -89 -73 -125 0
-59 71 -61 90 -2 22 68 130 128 262 147 67 10 83 9 123 -6 27 -11 57 -32 73
-53 36 -46 76 -67 102 -53 36 19 25 57 -32 111 -81 77 -162 105 -268 93z"/>
<path d="M1415 3055 c-5 -2 -29 -9 -52 -15 -46 -11 -135 -85 -158 -131 -30
-58 -10 -107 39 -95 14 3 28 17 34 34 15 43 79 100 126 113 54 15 170 5 223
-18 25 -11 57 -38 83 -70 48 -60 73 -72 101 -47 32 28 22 52 -48 123 -52 51
-81 71 -123 85 -51 17 -202 31 -225 21z"/>
<path d="M1524 2762 c-33 -21 -82 -80 -107 -127 -59 -116 -1 -432 97 -530 29
-29 81 -33 124 -11 36 18 129 118 142 150 37 99 10 389 -45 473 -21 32 -64 52
-127 58 -42 5 -59 2 -84 -13z m96 -81 c0 -5 -7 -14 -15 -21 -38 -32 -58 -190
-33 -272 15 -52 62 -92 100 -84 18 4 28 1 28 -7 0 -35 -98 -134 -123 -124 -22
8 -64 108 -81 191 -30 145 -16 231 47 299 25 25 77 38 77 18z"/>
<path d="M2123 2750 c-51 -12 -108 -64 -134 -122 -21 -46 -24 -69 -24 -163 0
-156 17 -206 101 -295 40 -42 79 -73 101 -81 84 -27 192 17 240 99 24 41 28
59 31 147 6 164 -23 256 -112 353 -64 70 -111 84 -203 62z m129 -107 c74 -81
98 -151 98 -288 0 -128 -25 -166 -117 -178 -40 -5 -44 -2 -99 51 l-57 56 30 8
c22 6 37 21 56 57 49 89 32 256 -29 283 -24 11 -25 13 -8 25 10 7 36 13 59 13
32 0 47 -6 67 -27z"/>
<path d="M2057 1952 c-10 -10 -17 -23 -17 -28 0 -34 -132 -114 -187 -114 -40
0 -83 40 -83 76 0 46 -52 70 -84 38 -24 -24 -19 -57 17 -110 67 -102 157 -116
288 -48 83 44 139 103 139 149 0 53 -41 73 -73 37z"/>
</g>
</svg>
